<?xml version="1.0" encoding="utf-8"?><svg viewBox="0 0 618 120" xmlns="http://www.w3.org/2000/svg"><path d="m0 .75h616.72q.53 0 .53.52v15.2q0 .52-.52.52h-616.73z" fill="#0050ff"/><g fill="#fff"><path d="m0 34.76 17.46.02q.52 0 .52.53.05 23.78.01 47.51c-.01 9.63 1.81 18.02 11.99 20.11 10.58 2.17 19.83-3.79 20.18-15.2q.25-8 .03-36.26 0-.47-.47-.47h-8.22q-.5 0-.5-.5v-15.25q0-.5.5-.5h26.21q.46 0 .46.46.3 35.29-.06 53.57c-.33 17.43-11.11 28.01-27.53 30.18-20.94 2.77-38.58-6.23-40.58-28.87z"/><path d="m192.48 112.52.02 5.23q0 .5-.5.5h-14.5q-.5 0-.5-.5v-82.5q0-.5.5-.5h15.25q.5 0 .5.5v29.51q0 .62.46.21 12.34-11.01 28.29-6.63c12.91 3.55 19.77 16.43 19.44 29.66-.47 18.98-11.7 32.35-31.68 31.19q-10.19-.6-16.73-6.91-.55-.52-.55.24zm16.1005-7.41a16.89 15.45 90.1 0 0 15.4795-16.863 16.89 15.45 90.1 0 0 -15.4205-16.917 16.89 15.45 90.1 0 0 -15.4795 16.863 16.89 15.45 90.1 0 0 15.4205 16.917z"/><rect height="83.5" rx=".31" width="16.5" x="357.25" y="34.75"/><rect height="83.5" rx=".31" width="16.5" x="383.25" y="34.75"/><path d="m540 51.3v50.16a.3.3 0 0 0 .3.3l8.65-.01a.3.3 0 0 1 .3.3v15.9a.3.3 0 0 1 -.3.3h-35.65a.3.3 0 0 1 -.3-.3v-15.9a.3.3 0 0 1 .3-.3h8.65a.3.3 0 0 0 .3-.3v-50.15a.3.3 0 0 0 -.3-.3h-8.65a.3.3 0 0 1 -.3-.3v-15.65a.3.3 0 0 1 .3-.3h35.65a.3.3 0 0 1 .3.3v15.65a.3.3 0 0 1 -.3.3h-8.65a.3.3 0 0 0 -.3.3z"/><path d="m595 51.36v66.53a.36.36 0 0 1 -.36.36h-17.28a.36.36 0 0 1 -.36-.36v-66.53a.36.36 0 0 0 -.36-.36h-21.53a.36.36 0 0 1 -.36-.36v-15.53a.36.36 0 0 1 .36-.36h61.78a.36.36 0 0 1 .36.36v15.53a.36.36 0 0 1 -.36.36h-21.53a.36.36 0 0 0 -.36.36z"/><path d="m128.16 65.84c1.07-1.05 2.03-2.72 3.17-3.54q11.07-7.99 23.42-3.74c7.68 2.65 11.94 8.87 12.16 16.81q.27 9.4.02 42.42 0 .46-.47.46h-15.19q-.5 0-.5-.5-.05-16.17-.01-32.31.01-5.87-.92-8.28c-2.57-6.61-10.91-6.38-15.34-2.02-3.04 2.99-3.69 6.54-3.71 11.09q-.06 15.74-.04 31.5 0 .52-.51.52h-15.22q-.5 0-.5-.51-.05-17.77-.02-35.49c.03-13.15-15.77-13.05-19.76-3.14q-.97 2.4-.97 8.44-.02 15.07-.02 30.19 0 .51-.52.51h-15.28q-.54 0-.54-.55l-.23-59.17q0-.53.54-.53h13.78q.5 0 .5.5v6.97q0 .83.54.2 9.65-11.33 24.56-7.46 6.72 1.75 10.36 7.54.3.47.7.09z"/><path d="m304.59 93.69c.29 12.83 19.09 15.94 25.68 6.47q.28-.41.78-.41h17.19q.72 0 .48.68-5.05 13.96-19.47 17.57c-26.34 6.59-47.44-10.1-40.72-38.25 4.17-17.45 20.44-25.2 37.13-21.95 17.76 3.45 24.78 18.12 23.72 35.06q-.03.39-.42.39h-43.94q-.44 0-.43.44zm.93-12.44h25.76a.11.11 0 0 0 .11-.11v-.05a12.91 10.02 0 0 0 -12.91-10.02h-.16a12.91 10.02 0 0 0 -12.91 10.02v.05a.11.11 0 0 0 .11.11z"/><path d="m454.65 111.7q-4.46 4.81-9.64 6.27c-24.97 7.07-42.36-12.48-37.41-36.68q4.32-21.15 25.37-23.96 12.57-1.67 22.35 6.62.43.36.43-.2v-6q0-.5.5-.5h14.5q.5 0 .5.5v60q0 .5-.5.5h-13.52a.67.66-5.9 0 1 -.65-.52l-1.24-5.84q-.17-.76-.69-.19zm-15.0789-6.4801a16.87 15.44 90.2 0 0 15.4988-16.816 16.87 15.44 90.2 0 0 -15.381-16.9238 16.87 15.44 90.2 0 0 -15.4988 16.816 16.87 15.44 90.2 0 0 15.381 16.9238z"/><path d="m265 65.95a.47.46 58.3 0 0 .88.21c4.08-8.07 12.59-8.72 20.98-8.04q.39.04.39.43v14.43q0 .48-.48.49c-4.06.1-9.15-.52-12.62.8q-8.13 3.08-8.28 13.64-.2 14.88-.1 29.81 0 .53-.53.53h-15.49q-.5 0-.5-.5v-59.25q0-.5.5-.5h14.75q.5 0 .5.5z"/></g></svg>